Coordinates
version=1
nRows=32
nColumns=12
inDegrees=yes

Units are S.I. units (second, meters, Newtons, ...)
Angles are in degrees

endheader
time	SC_y	SC_z	SC_x	AC_y	AC_z	AC_x	GH_y	GH_z	GH_yy	EL_x	PS_y
       0.0              -46.23           10.1          83.35          57.76         -12.39         -8.263          33.13         -0.652         -42.74          8.686          124.7
   0.03769              -46.22           10.1          83.35          57.75         -12.39         -8.262          33.11        -0.6427         -42.73          8.692          124.7
   0.07537              -46.22          10.11          83.34          57.75         -12.39         -8.261          33.09        -0.6328         -42.73          8.699          124.7
    0.1131              -46.22          10.11          83.34          57.75         -12.38          -8.26          33.07        -0.6222         -42.73          8.707          124.7
    0.1507              -46.21          10.11          83.33          57.75         -12.38         -8.259          33.05         -0.611         -42.72          8.714          124.7
    0.1884              -46.21          10.11          83.33          57.75         -12.38         -8.258          33.03         -0.599         -42.71          8.723          124.7
    0.2261              -46.21          10.11          83.32          57.74         -12.38         -8.256           33.0        -0.5862         -42.71          8.732          124.7
    0.2638               -46.2          10.12          83.32          57.74         -12.38         -8.255          32.97        -0.5725          -42.7          8.741          124.7
    0.3015               -46.2          10.12          83.31          57.74         -12.38         -8.254          32.95        -0.5578          -42.7          8.751          124.6
    0.3392              -46.19          10.12          83.31          57.74         -12.37         -8.252          32.92        -0.5421         -42.69          8.762          124.6
    0.3769              -46.19          10.13           83.3          57.73         -12.37         -8.251          32.88        -0.5252         -42.68          8.774          124.6
    0.4145              -46.18          10.13          83.29          57.73         -12.37         -8.249          32.85         -0.507         -42.67          8.787          124.6
    0.4522              -46.18          10.13          83.28          57.73         -12.37         -8.247          32.81        -0.4875         -42.66            8.8          124.5
    0.4899              -46.17          10.14          83.28          57.72         -12.36         -8.245          32.77        -0.4663         -42.65          8.815          124.5
    0.5276              -46.16          10.14          83.27          57.72         -12.36         -8.243          32.72        -0.4434         -42.64          8.831          124.5
    0.5653              -46.16          10.15          83.26          57.71         -12.36         -8.241          32.68        -0.4186         -42.63          8.848          124.5
     0.603              -46.15          10.15          83.25          57.71         -12.35         -8.238          32.62        -0.3916         -42.62          8.867          124.4
    0.6407              -46.14          10.16          83.23           57.7         -12.35         -8.236          32.57        -0.3622         -42.61          8.887          124.4
    0.6783              -46.13          10.16          83.22           57.7         -12.34         -8.233          32.51        -0.3301         -42.59          8.909          124.4
     0.716              -46.12          10.17          83.21          57.69         -12.34         -8.229          32.44        -0.2949         -42.58          8.934          124.3
    0.7537              -46.11          10.18          83.19          57.69         -12.33         -8.226          32.36        -0.2563         -42.56          8.961          124.3
    0.7914               -46.1          10.19          83.18          57.68         -12.33         -8.222          32.28        -0.2138         -42.54           8.99          124.2
    0.8291              -46.08          10.19          83.16          57.67         -12.32         -8.218          32.19        -0.1669         -42.52          9.023          124.2
    0.8668              -46.07           10.2          83.14          57.66         -12.32         -8.213          32.09        -0.1149         -42.49          9.059          124.1
    0.9045              -46.05          10.21          83.11          57.65         -12.31         -8.207          31.98       -0.05711         -42.47          9.099          124.0
    0.9421              -46.03          10.23          83.09          57.64          -12.3         -8.201          31.85       0.007379         -42.44          9.144          124.0
    0.9798              -46.01          10.24          83.06          57.62         -12.29         -8.195          31.71        0.07962         -42.41          9.194          123.9
     1.018              -45.99          10.26          83.03          57.61         -12.28         -8.187          31.55         0.1609         -42.37           9.25          123.8
     1.055              -45.96          10.27          82.99          57.59         -12.27         -8.179          31.38         0.2527         -42.33          9.314          123.7
     1.093              -45.93          10.29          82.95          57.58         -12.25         -8.169          31.18          0.357         -42.28          9.387          123.5
     1.131               -45.9          10.32           82.9          57.55         -12.24         -8.158          30.94          0.476         -42.23          9.469          123.4
     1.168              -45.86          10.34          82.85          57.53         -12.22         -8.145          30.68         0.6126         -42.16          9.564          123.2
